<svg width="50" height="50" viewBox="0 0 513 512" fill="none" xmlns="http://www.w3.org/2000/svg">
    <path d="M205.575 149.312C215.532 119.21 226.509 104.013 255.805 81C283.042 99.8717 294.241 115.121 308.044 149.312C336.307 125.052 356.02 115.997 398.055 107.923C405.911 139.741 406.926 156.724 398.055 184.272C433.741 181.431 451.266 181.974 476.815 187.889C472.632 217.67 467.359 231.066 455.116 251.781C457.527 333.755 359.479 431 255.805 431C152.131 431 57.6992 330.541 57.6992 251.781C42.3338 229.461 38.9966 214.929 36 187.889C63.8859 176.918 82.0981 178.499 115.564 184.272C107.493 156.477 107.061 139.892 115.564 107.923C153.217 113.045 172.605 123.523 205.575 149.312Z" fill="oklch(0.61 0.22 292.72)" />
    
    <path d="M121.591 205.97C94.0265 195.901 80.1485 194.992 57.6992 200.345C75.7819 267.452 147.711 308.439 224.462 286.74C173.043 270.744 150.676 252.886 121.591 205.97Z" fill="oklch(0.93 0.03 255.59)" />
    <path d="M205.575 182.262C212.165 225.173 220.143 244.329 240.535 271.47C165.793 256.602 121.591 192.308 132.039 129.22C161.051 138.19 177.25 145.88 205.575 182.262Z" fill="oklch(0.93 0.03 255.59)" />
    <path d="M293.578 169.805C286.615 139.795 278.608 125.593 255.805 105.913C230.756 128.365 224.465 142.731 219.64 169.805C232.893 208.703 240.572 229.487 255.805 260.218C270.195 235.308 278.483 214.998 293.578 169.805Z" fill="oklch(0.93 0.03 255.59)" />
    <path d="M381.982 129.22C390.42 200.345 348.629 249.771 274.289 271.47C287.095 245.334 296.282 221.245 314.473 169.805C337.54 146.625 352.287 137.591 381.982 129.22Z" fill="oklch(0.93 0.03 255.59)" />
    <path d="M455.116 200.345C434.545 274.188 374.478 303.775 293.578 286.74C339.805 270.548 362.259 254.784 391.626 205.97C416.403 201.132 430.3 199.348 455.116 200.345Z" fill="oklch(0.93 0.03 255.59)" />
    <path d="M93.4627 303.215C85.3026 293.829 82.8635 287.479 80.6039 275.086C150.106 322.702 188.428 324.789 255.805 290.356C327.609 322.594 366.893 324.402 433.819 275.086C433.962 286.368 431.266 292.582 421.362 303.215C353.596 340.083 318.261 330.991 255.805 308.439C197.817 334.921 162.228 334.057 93.4627 303.215Z" fill="oklch(0.93 0.03 255.59)" />
    <path d="M254.599 330.942C331.685 351.631 364.632 350.224 407.297 327.325C334.163 436.625 166.999 428.99 109.536 323.307C159.451 355.51 192.33 352.338 254.599 330.942Z" fill="oklch(0.93 0.03 255.59)" />
</svg>